dataset
version=1
nRows=22
nColumns=39
inDegrees=no
endheader
time	sternoclavicular_r2	sternoclavicular_r3	unrotscap_r3	unrotscap_r2	acromioclavicular_r2	acromioclavicular_r3	acromioclavicular_r1	unrothum_r1	unrothum_r3	unrothum_r2	elv_angle	shoulder_elv	shoulder1_r2	shoulder_rot	elbow_flexion	pro_sup	deviation	flexion	cmc_abduction	cmc_flexion	mp_flexion	ip_flexion	mcp2_flexion	mcp2_abduction	pm2_flexion	md2_flexion	mcp3_flexion	mcp3_abduction	pm3_flexion	md3_flexion	mcp4_flexion	mcp4_abduction	pm4_flexion	md4_flexion	mcp5_flexion	mcp5_abduction	pm5_flexion	md5_flexion
1.970000	-0.026103	-0.306778	0.168944	0.078763	0.030728	0.229121	-0.057163	-0.074414	0.195315	0.050702	0.078882	0.027437	0.146525	0.146525	1.910227	1.278591	0.000000	0.000000	0.000000	0.000000	0.000000	0.000000	0.000000	0.000000	0.000000	0.000000	0.000000	0.000000	0.000000	0.000000	0.000000	0.000000	0.000000	0.000000	0.000000	0.000000	0.000000	0.000000
1.975000	-0.026175	-0.306636	0.168961	0.078463	0.030195	0.230190	-0.056424	-0.074300	0.196665	0.049895	0.078539	0.027437	0.146525	0.146525	1.912767	1.278608	0.000000	0.000000	0.000000	0.000000	0.000000	0.000000	0.000000	0.000000	0.000000	0.000000	0.000000	0.000000	0.000000	0.000000	0.000000	0.000000	0.000000	0.000000	0.000000	0.000000	0.000000	0.000000
1.980000	-0.026248	-0.306493	0.168976	0.078160	0.029660	0.231260	-0.055682	-0.074185	0.198016	0.049085	0.078194	0.027437	0.146525	0.146525	1.915303	1.278625	0.000000	0.000000	0.000000	0.000000	0.000000	0.000000	0.000000	0.000000	0.000000	0.000000	0.000000	0.000000	0.000000	0.000000	0.000000	0.000000	0.000000	0.000000	0.000000	0.000000	0.000000	0.000000
1.985000	-0.026321	-0.306350	0.168988	0.077855	0.029122	0.232330	-0.054936	-0.074066	0.199367	0.048271	0.077845	0.027437	0.146525	0.146525	1.917834	1.278643	0.000000	0.000000	0.000000	0.000000	0.000000	0.000000	0.000000	0.000000	0.000000	0.000000	0.000000	0.000000	0.000000	0.000000	0.000000	0.000000	0.000000	0.000000	0.000000	0.000000	0.000000	0.000000
1.990000	-0.026395	-0.306205	0.168997	0.077548	0.028582	0.233399	-0.054187	-0.073945	0.200718	0.047453	0.077493	0.027437	0.146525	0.146525	1.920359	1.278660	0.000000	0.000000	0.000000	0.000000	0.000000	0.000000	0.000000	0.000000	0.000000	0.000000	0.000000	0.000000	0.000000	0.000000	0.000000	0.000000	0.000000	0.000000	0.000000	0.000000	0.000000	0.000000
1.995000	-0.026469	-0.306060	0.169004	0.077238	0.028039	0.234469	-0.053434	-0.073820	0.202070	0.046631	0.077138	0.027437	0.146525	0.146525	1.922878	1.278678	0.000000	0.000000	0.000000	0.000000	0.000000	0.000000	0.000000	0.000000	0.000000	0.000000	0.000000	0.000000	0.000000	0.000000	0.000000	0.000000	0.000000	0.000000	0.000000	0.000000	0.000000	0.000000
2.000000	-0.026544	-0.305913	0.169007	0.076925	0.027493	0.235538	-0.052677	-0.073692	0.203421	0.045805	0.076779	0.027437	0.146525	0.146525	1.925389	1.278697	0.000000	0.000000	0.000000	0.000000	0.000000	0.000000	0.000000	0.000000	0.000000	0.000000	0.000000	0.000000	0.000000	0.000000	0.000000	0.000000	0.000000	0.000000	0.000000	0.000000	0.000000	0.000000
2.005000	-0.026620	-0.305766	0.169008	0.076611	0.026945	0.236607	-0.051917	-0.073560	0.204772	0.044974	0.076417	0.027437	0.146525	0.146525	1.927891	1.278716	0.000000	0.000000	0.000000	0.000000	0.000000	0.000000	0.000000	0.000000	0.000000	0.000000	0.000000	0.000000	0.000000	0.000000	0.000000	0.000000	0.000000	0.000000	0.000000	0.000000	0.000000	0.000000
2.010000	-0.026695	-0.305617	0.169006	0.076293	0.026395	0.237676	-0.051152	-0.073425	0.206124	0.044140	0.076051	0.027437	0.146525	0.146525	1.930383	1.278735	0.000000	0.000000	0.000000	0.000000	0.000000	0.000000	0.000000	0.000000	0.000000	0.000000	0.000000	0.000000	0.000000	0.000000	0.000000	0.000000	0.000000	0.000000	0.000000	0.000000	0.000000	0.000000
2.015000	-0.026772	-0.305468	0.169001	0.075974	0.025842	0.238745	-0.050382	-0.073285	0.207474	0.043301	0.075682	0.027437	0.146525	0.146525	1.932864	1.278755	0.000000	0.000000	0.000000	0.000000	0.000000	0.000000	0.000000	0.000000	0.000000	0.000000	0.000000	0.000000	0.000000	0.000000	0.000000	0.000000	0.000000	0.000000	0.000000	0.000000	0.000000	0.000000
2.020000	-0.026849	-0.305317	0.168993	0.075653	0.025287	0.239814	-0.049609	-0.073142	0.208825	0.042458	0.075309	0.027437	0.146525	0.146525	1.935334	1.278776	0.000000	0.000000	0.000000	0.000000	0.000000	0.000000	0.000000	0.000000	0.000000	0.000000	0.000000	0.000000	0.000000	0.000000	0.000000	0.000000	0.000000	0.000000	0.000000	0.000000	0.000000	0.000000
2.025000	-0.026926	-0.305165	0.168981	0.075329	0.024729	0.240882	-0.048831	-0.072994	0.210175	0.041611	0.074933	0.027437	0.146525	0.146525	1.937790	1.278797	0.000000	0.000000	0.000000	0.000000	0.000000	0.000000	0.000000	0.000000	0.000000	0.000000	0.000000	0.000000	0.000000	0.000000	0.000000	0.000000	0.000000	0.000000	0.000000	0.000000	0.000000	0.000000
2.030000	-0.027005	-0.305013	0.168966	0.075004	0.024169	0.241950	-0.048049	-0.072841	0.211525	0.040759	0.074554	0.027437	0.146525	0.146525	1.940233	1.278819	0.000000	0.000000	0.000000	0.000000	0.000000	0.000000	0.000000	0.000000	0.000000	0.000000	0.000000	0.000000	0.000000	0.000000	0.000000	0.000000	0.000000	0.000000	0.000000	0.000000	0.000000	0.000000
2.035000	-0.027084	-0.304859	0.168948	0.074676	0.023608	0.243017	-0.047262	-0.072684	0.212874	0.039904	0.074171	0.027437	0.146525	0.146525	1.942660	1.278841	0.000000	0.000000	0.000000	0.000000	0.000000	0.000000	0.000000	0.000000	0.000000	0.000000	0.000000	0.000000	0.000000	0.000000	0.000000	0.000000	0.000000	0.000000	0.000000	0.000000	0.000000	0.000000
2.040000	-0.027163	-0.304704	0.168927	0.074347	0.023044	0.244084	-0.046471	-0.072523	0.214223	0.039045	0.073786	0.027437	0.146525	0.146525	1.945072	1.278865	0.000000	0.000000	0.000000	0.000000	0.000000	0.000000	0.000000	0.000000	0.000000	0.000000	0.000000	0.000000	0.000000	0.000000	0.000000	0.000000	0.000000	0.000000	0.000000	0.000000	0.000000	0.000000
2.045000	-0.027243	-0.304547	0.168901	0.074016	0.022479	0.245150	-0.045676	-0.072357	0.215571	0.038183	0.073397	0.027437	0.146525	0.146525	1.947466	1.278889	0.000000	0.000000	0.000000	0.000000	0.000000	0.000000	0.000000	0.000000	0.000000	0.000000	0.000000	0.000000	0.000000	0.000000	0.000000	0.000000	0.000000	0.000000	0.000000	0.000000	0.000000	0.000000
2.050000	-0.027324	-0.304390	0.168873	0.073684	0.021913	0.246215	-0.044877	-0.072186	0.216918	0.037316	0.073006	0.027437	0.146525	0.146525	1.949842	1.278914	0.000000	0.000000	0.000000	0.000000	0.000000	0.000000	0.000000	0.000000	0.000000	0.000000	0.000000	0.000000	0.000000	0.000000	0.000000	0.000000	0.000000	0.000000	0.000000	0.000000	0.000000	0.000000
2.055000	-0.027406	-0.304232	0.168841	0.073351	0.021345	0.247279	-0.044073	-0.072010	0.218265	0.036447	0.072612	0.027437	0.146525	0.146525	1.952199	1.278939	0.000000	0.000000	0.000000	0.000000	0.000000	0.000000	0.000000	0.000000	0.000000	0.000000	0.000000	0.000000	0.000000	0.000000	0.000000	0.000000	0.000000	0.000000	0.000000	0.000000	0.000000	0.000000
2.060000	-0.027488	-0.304072	0.168806	0.073017	0.020777	0.248342	-0.043265	-0.071830	0.219610	0.035575	0.072216	0.027437	0.146525	0.146525	1.954535	1.278966	0.000000	0.000000	0.000000	0.000000	0.000000	0.000000	0.000000	0.000000	0.000000	0.000000	0.000000	0.000000	0.000000	0.000000	0.000000	0.000000	0.000000	0.000000	0.000000	0.000000	0.000000	0.000000
2.065000	-0.027571	-0.303912	0.168767	0.072682	0.020207	0.249404	-0.042453	-0.071646	0.220954	0.034700	0.071817	0.027437	0.146525	0.146525	1.956850	1.278994	0.000000	0.000000	0.000000	0.000000	0.000000	0.000000	0.000000	0.000000	0.000000	0.000000	0.000000	0.000000	0.000000	0.000000	0.000000	0.000000	0.000000	0.000000	0.000000	0.000000	0.000000	0.000000
2.070000	-0.027655	-0.303751	0.168725	0.072346	0.019637	0.250464	-0.041637	-0.071457	0.222298	0.033823	0.071417	0.027437	0.146525	0.146525	1.959143	1.279022	0.000000	0.000000	0.000000	0.000000	0.000000	0.000000	0.000000	0.000000	0.000000	0.000000	0.000000	0.000000	0.000000	0.000000	0.000000	0.000000	0.000000	0.000000	0.000000	0.000000	0.000000	0.000000
2.075000	-0.027739	-0.303588	0.168679	0.072009	0.019067	0.251523	-0.040818	-0.071263	0.223640	0.032943	0.071015	0.027437	0.146525	0.146525	1.961413	1.279052	0.000000	0.000000	0.000000	0.000000	0.000000	0.000000	0.000000	0.000000	0.000000	0.000000	0.000000	0.000000	0.000000	0.000000	0.000000	0.000000	0.000000	0.000000	0.000000	0.000000	0.000000	0.000000
